<mxfile host="app.diagrams.net" modified="2024-06-14T22:42:43.314Z" agent="Mozilla/5.0 (Windows NT 10.0; Win64; x64) AppleWebKit/537.36 (KHTML, like Gecko) Chrome/123.0.0.0 Safari/537.36 OPR/109.0.0.0" etag="o4fyayqHhLFLALfN7u70" version="24.5.4" type="github">
  <diagram name="Página-1" id="C0ewf9k-wDklDrfmiDpl">
    <mxGraphModel dx="700" dy="1579" grid="1" gridSize="10" guides="1" tooltips="1" connect="1" arrows="1" fold="1" page="1" pageScale="1" pageWidth="827" pageHeight="1169" math="0" shadow="0">
      <root>
        <mxCell id="0" />
        <mxCell id="1" parent="0" />
        <mxCell id="ku4myqxUyGp9PUJncTsU-22" style="edgeStyle=orthogonalEdgeStyle;rounded=0;orthogonalLoop=1;jettySize=auto;html=1;exitX=0.5;exitY=0.5;exitDx=0;exitDy=0;exitPerimeter=0;entryX=0;entryY=0.5;entryDx=0;entryDy=0;fillColor=#dae8fc;strokeColor=#6c8ebf;" edge="1" parent="1" source="ku4myqxUyGp9PUJncTsU-1" target="ku4myqxUyGp9PUJncTsU-19">
          <mxGeometry relative="1" as="geometry">
            <Array as="points">
              <mxPoint x="275" y="200" />
              <mxPoint x="275" y="170" />
              <mxPoint x="340" y="170" />
            </Array>
          </mxGeometry>
        </mxCell>
        <mxCell id="ku4myqxUyGp9PUJncTsU-26" style="edgeStyle=orthogonalEdgeStyle;rounded=0;orthogonalLoop=1;jettySize=auto;html=1;exitX=0.5;exitY=0.5;exitDx=0;exitDy=0;exitPerimeter=0;entryX=0;entryY=0.5;entryDx=0;entryDy=0;fillColor=#dae8fc;strokeColor=#6c8ebf;" edge="1" parent="1" source="ku4myqxUyGp9PUJncTsU-1" target="ku4myqxUyGp9PUJncTsU-24">
          <mxGeometry relative="1" as="geometry" />
        </mxCell>
        <mxCell id="ku4myqxUyGp9PUJncTsU-1" value="Médico" style="shape=umlActor;verticalLabelPosition=bottom;verticalAlign=top;html=1;outlineConnect=0;fillColor=#dae8fc;strokeColor=#6c8ebf;" vertex="1" parent="1">
          <mxGeometry x="180" y="170" width="30" height="60" as="geometry" />
        </mxCell>
        <mxCell id="ku4myqxUyGp9PUJncTsU-21" style="edgeStyle=orthogonalEdgeStyle;rounded=0;orthogonalLoop=1;jettySize=auto;html=1;exitX=0.5;exitY=0.5;exitDx=0;exitDy=0;exitPerimeter=0;entryX=1;entryY=0.5;entryDx=0;entryDy=0;" edge="1" parent="1" source="ku4myqxUyGp9PUJncTsU-3" target="ku4myqxUyGp9PUJncTsU-19">
          <mxGeometry relative="1" as="geometry" />
        </mxCell>
        <mxCell id="ku4myqxUyGp9PUJncTsU-3" value="paciente" style="shape=umlActor;verticalLabelPosition=bottom;verticalAlign=top;html=1;outlineConnect=0;" vertex="1" parent="1">
          <mxGeometry x="590" y="120" width="30" height="60" as="geometry" />
        </mxCell>
        <mxCell id="ku4myqxUyGp9PUJncTsU-13" style="edgeStyle=orthogonalEdgeStyle;rounded=0;orthogonalLoop=1;jettySize=auto;html=1;exitX=0.5;exitY=0.5;exitDx=0;exitDy=0;exitPerimeter=0;fillColor=#f8cecc;strokeColor=#b85450;" edge="1" parent="1" source="ku4myqxUyGp9PUJncTsU-4" target="ku4myqxUyGp9PUJncTsU-11">
          <mxGeometry relative="1" as="geometry">
            <Array as="points">
              <mxPoint x="195" y="40" />
              <mxPoint x="270" y="40" />
              <mxPoint x="270" />
            </Array>
          </mxGeometry>
        </mxCell>
        <mxCell id="ku4myqxUyGp9PUJncTsU-17" style="edgeStyle=orthogonalEdgeStyle;rounded=0;orthogonalLoop=1;jettySize=auto;html=1;exitX=0.5;exitY=0.5;exitDx=0;exitDy=0;exitPerimeter=0;fillColor=#f8cecc;strokeColor=#b85450;" edge="1" parent="1" source="ku4myqxUyGp9PUJncTsU-4" target="ku4myqxUyGp9PUJncTsU-15">
          <mxGeometry relative="1" as="geometry" />
        </mxCell>
        <mxCell id="ku4myqxUyGp9PUJncTsU-20" style="edgeStyle=orthogonalEdgeStyle;rounded=0;orthogonalLoop=1;jettySize=auto;html=1;exitX=1;exitY=1;exitDx=0;exitDy=0;exitPerimeter=0;entryX=0;entryY=0.5;entryDx=0;entryDy=0;fillColor=#f8cecc;strokeColor=#b85450;" edge="1" parent="1" source="ku4myqxUyGp9PUJncTsU-4" target="ku4myqxUyGp9PUJncTsU-19">
          <mxGeometry relative="1" as="geometry" />
        </mxCell>
        <mxCell id="ku4myqxUyGp9PUJncTsU-4" value="Administrador" style="shape=umlActor;verticalLabelPosition=bottom;verticalAlign=top;html=1;outlineConnect=0;fillColor=#f8cecc;strokeColor=#b85450;" vertex="1" parent="1">
          <mxGeometry x="180" y="40" width="30" height="60" as="geometry" />
        </mxCell>
        <mxCell id="ku4myqxUyGp9PUJncTsU-29" style="edgeStyle=orthogonalEdgeStyle;rounded=0;orthogonalLoop=1;jettySize=auto;html=1;exitX=0.5;exitY=1;exitDx=0;exitDy=0;dashed=1;strokeColor=default;" edge="1" parent="1" source="ku4myqxUyGp9PUJncTsU-11">
          <mxGeometry relative="1" as="geometry">
            <mxPoint x="400" y="40" as="targetPoint" />
          </mxGeometry>
        </mxCell>
        <mxCell id="ku4myqxUyGp9PUJncTsU-11" value="Marcar Consulta" style="ellipse;whiteSpace=wrap;html=1;" vertex="1" parent="1">
          <mxGeometry x="340" y="-30" width="120" height="50" as="geometry" />
        </mxCell>
        <mxCell id="ku4myqxUyGp9PUJncTsU-15" value="Cancelar consulta" style="ellipse;whiteSpace=wrap;html=1;" vertex="1" parent="1">
          <mxGeometry x="340" y="45" width="120" height="50" as="geometry" />
        </mxCell>
        <mxCell id="ku4myqxUyGp9PUJncTsU-19" value="Visualizar agenda de consultas" style="ellipse;whiteSpace=wrap;html=1;" vertex="1" parent="1">
          <mxGeometry x="340" y="120" width="120" height="60" as="geometry" />
        </mxCell>
        <mxCell id="ku4myqxUyGp9PUJncTsU-24" value="Gerar relatório de consultas" style="ellipse;whiteSpace=wrap;html=1;" vertex="1" parent="1">
          <mxGeometry x="340" y="200" width="120" height="60" as="geometry" />
        </mxCell>
        <mxCell id="ku4myqxUyGp9PUJncTsU-30" style="edgeStyle=orthogonalEdgeStyle;rounded=0;orthogonalLoop=1;jettySize=auto;html=1;exitX=1;exitY=0.3333333333333333;exitDx=0;exitDy=0;exitPerimeter=0;entryX=-0.002;entryY=0.665;entryDx=0;entryDy=0;entryPerimeter=0;fillColor=#dae8fc;strokeColor=#6c8ebf;" edge="1" parent="1" source="ku4myqxUyGp9PUJncTsU-1" target="ku4myqxUyGp9PUJncTsU-11">
          <mxGeometry relative="1" as="geometry" />
        </mxCell>
      </root>
    </mxGraphModel>
  </diagram>
</mxfile>
